<svg xmlns="http://www.w3.org/2000/svg" width="549.05" height="344.363" viewBox="0 0 549.05 344.363">
  <g id="Group_1" data-name="Group 1" transform="translate(-703 -368)">
    <g id="Rectangle_1" data-name="Rectangle 1" transform="translate(703 380)" fill="#171a3e" stroke="#7988e4" stroke-width="3">
      <rect width="280" height="141" stroke="none"/>
      <rect x="1.5" y="1.5" width="277" height="138" fill="none"/>
    </g>
    <g id="Rectangle_2" data-name="Rectangle 2" transform="translate(751 536)" fill="#171a3e" stroke="#7988e4" stroke-width="3">
      <rect width="200" height="141" stroke="none"/>
      <rect x="1.5" y="1.5" width="197" height="138" fill="none"/>
    </g>
    <g id="Path_6" data-name="Path 6" transform="translate(998 380)" fill="#171a3e">
      <path d="M 233.5 139.5 L 1.499992370605469 139.5 L 1.499992370605469 1.5 L 233.5 1.5 L 233.5 139.5 Z" stroke="none"/>
      <path d="M 2.999984741210938 3 L 2.999984741210938 138 L 232 138 L 232 3 L 2.999984741210938 3 M -1.52587890625e-05 0 L 235 0 L 235 141 L -1.52587890625e-05 141 L -1.52587890625e-05 0 Z" stroke="none" fill="#7988e4"/>
    </g>
    <text id="Fest" transform="translate(1026 490)" fill="#fff" font-size="125" font-family="BebasNeueBold, Bebas Neue"><tspan x="0" y="0">Fest</tspan></text>
    <text id="Block" transform="translate(721 490)" fill="#ef034f" font-size="125" font-family="BebasNeueBold, Bebas Neue"><tspan x="0" y="0">Block</tspan></text>
    <text id="NYC" transform="translate(777 646)" fill="#fff" font-size="125" font-family="BebasNeueBold, Bebas Neue"><tspan x="0" y="0">NYC</tspan></text>
    <line id="Line_8" data-name="Line 8" y2="18" transform="translate(999.5 519.5)" fill="none" stroke="#7988e4" stroke-width="3"/>
    <g id="Rectangle_4" data-name="Rectangle 4" transform="translate(968 536)" fill="#171a3e" stroke="#7988e4" stroke-width="3">
      <rect width="230" height="141" stroke="none"/>
      <rect x="1.5" y="1.5" width="227" height="138" fill="none"/>
    </g>
    <text id="_2019" data-name="2019" transform="translate(984 646)" fill="#7988e4" font-size="125" font-family="BebasNeueBold, Bebas Neue"><tspan x="0" y="0">2019</tspan></text>
    <path id="Path_1" data-name="Path 1" d="M18,18h9.125L36,31H0L8.706,18Z" transform="translate(752 350)" fill="#7988e4"/>
    <path id="Path_2" data-name="Path 2" d="M18,18h9.125L36,31H0L8.706,18Z" transform="translate(822 350)" fill="#7988e4"/>
    <path id="Path_3" data-name="Path 3" d="M18,18h9.125L36,31H0L8.706,18Z" transform="translate(892 350)" fill="#7988e4"/>
    <path id="Path_4" data-name="Path 4" d="M18,18h9.125L36,31H0L8.706,18Z" transform="translate(1064 350)" fill="#7988e4"/>
    <path id="Path_5" data-name="Path 5" d="M18,18h9.125L36,31H0L8.706,18Z" transform="translate(1144 350)" fill="#7988e4"/>
    <path id="Path_21" data-name="Path 21" d="M0,0,1.75,2.438,14,19.5" transform="translate(980.22 518.11)" fill="none" stroke="#7988e4" stroke-width="3"/>
    <line id="Line_9" data-name="Line 9" x2="14.72" y2="19.11" transform="translate(999.5 518.5)" fill="none" stroke="#7988e4" stroke-width="3"/>
    <line id="Line_7" data-name="Line 7" x2="17.7" y2="27.65" transform="translate(981.8 380.85)" fill="none" stroke="#7988e4" stroke-width="3"/>
    <path id="Path_16" data-name="Path 16" d="M0,0" transform="translate(1195.5 537.5)" fill="none" stroke="#eb7f2f" stroke-width="3"/>
    <path id="Path_30" data-name="Path 30" d="M.044,136.533-.009.531" transform="translate(1250.5 417)" fill="none" stroke="#7988e4" stroke-width="3"/>
    <path id="Path_19" data-name="Path 19" d="M.176-1.8,19,35" transform="translate(950.5 538.5)" fill="none" stroke="#7988e4" stroke-width="3"/>
    <path id="Path_9" data-name="Path 9" d="M0,.059,19.808,36.01" transform="translate(949.5 675.5)" fill="none" stroke="#7988e4" stroke-width="3"/>
    <path id="Path_12" data-name="Path 12" d="M0,.059,19.808,36.01" transform="translate(969.5 675.5)" fill="none" stroke="#7988e4" stroke-width="3"/>
    <path id="Path_13" data-name="Path 13" d="M0,.059,18.891,34.6" transform="translate(1195.498 675.5)" fill="none" stroke="#7988e4" stroke-width="3"/>
    <path id="Path_15" data-name="Path 15" d="M.193-2.446,18.974,35.137" transform="translate(1196.498 539.141)" fill="none" stroke="#7988e4" stroke-width="3"/>
    <path id="Path_17" data-name="Path 17" d="M.14-2.526,19.2,35.072" transform="translate(1231.498 519.141)" fill="none" stroke="#7988e4" stroke-width="3"/>
    <path id="Path_18" data-name="Path 18" d="M.173-2.464,18.765,34.28l.1.2.3.586h0" transform="translate(1231.498 383.141)" fill="none" stroke="#7988e4" stroke-width="3"/>
    <path id="Path_10" data-name="Path 10" d="M-.2.763c5.2,9,19.721,34.793,19.721,34.793" transform="translate(752.5 675.5)" fill="none" stroke="#7988e4" stroke-width="3"/>
    <line id="Line_15" data-name="Line 15" y2="36" transform="translate(969.5 676.23)" fill="none" stroke="#7988e4" stroke-width="3"/>
    <path id="Path_11" data-name="Path 11" d="M219.224.234c-49.954-.053-200-.445-200-.445" transform="translate(751.5 710.5)" fill="none" stroke="#7988e4" stroke-width="3"/>
    <path id="Path_14" data-name="Path 14" d="M0,0,227.7.112" transform="translate(988 710.75)" fill="none" stroke="#7988e4" stroke-width="3"/>
    <path id="Path_26" data-name="Path 26" d="M0,0,.024,138.862" transform="translate(1215.5 573.5)" fill="none" stroke="#7988e4" stroke-width="3"/>
    <path id="Path_20" data-name="Path 20" d="M534.821,522.993l27.594,31.014,16.537-.02L579.008,538l201.32.714,7.856,15.225,7.973.291V538.714h23.769l-11.566-15.7Z" transform="translate(172 -2)" fill="#2b2e57"/>
    <path id="Path_22" data-name="Path 22" d="M811.007,387.581,811,521.376l11.968,16.646h2.979l.062-127.076Z" transform="translate(172 -2)" fill="#2b2e57"/>
    <path id="Path_23" data-name="Path 23" d="M582.454,679.008l18.081,31.742,193.779.49-17.731-32.194Z" transform="translate(172 -2)" fill="#2b2e57"/>
    <path id="Path_24" data-name="Path 24" d="M779.011,542.7l16.968,33.2.007,132.1-16.966-30.812Z" transform="translate(172 -2)" fill="#2b2e57"/>
    <path id="Path_25" data-name="Path 25" d="M800.038,679.016l17.741,32.2,33.458.014,188.983.079-17.637-32.322Z" transform="translate(172 -2)" fill="#2b2e57"/>
    <path id="Path_27" data-name="Path 27" d="M1026.005,544.732l15.987,32,.055,131.536-16.029-29.22Z" transform="translate(172 -2)" fill="#2b2e57"/>
    <path id="Path_28" data-name="Path 28" d="M831.359,523.033,842.9,538.015l183.126-.034L1034.036,554l41.871.011L1060.185,523Z" transform="translate(172 -2)" fill="#2b2e57"/>
    <path id="Path_29" data-name="Path 29" d="M1026.013,388.613l16.017,31.631-.021,129.336-16-31.583Z" transform="translate(207 -2)" fill="#2b2e57"/>
    <line id="Line_16" data-name="Line 16" x1="46" transform="translate(1206.05 553.5)" fill="none" stroke="#7988e4" stroke-width="3"/>
    <line id="Line_17" data-name="Line 17" x1="11" transform="translate(959.05 553.5)" fill="none" stroke="#7988e4" stroke-width="3"/>
    <line id="Line_18" data-name="Line 18" x1="19" transform="translate(733.05 553.5)" fill="none" stroke="#7988e4" stroke-width="3"/>
    <path id="Path_32" data-name="Path 32" d="M0,0,29.951,33.9" transform="translate(704.22 520.11)" fill="none" stroke="#7988e4" stroke-width="3"/>
  </g>
</svg>
